<?xml version="1.0" encoding="utf-8"?>
<!-- Generator: Adobe Illustrator 21.1.0, SVG Export Plug-In . SVG Version: 6.00 Build 0)  -->
<svg version="1.1" id="Layer_1" xmlns="http://www.w3.org/2000/svg" xmlns:xlink="http://www.w3.org/1999/xlink" x="0px" y="0px"
	 viewBox="0 0 216.3 86.8" style="enable-background:new 0 0 216.3 86.8;" xml:space="preserve">
<style type="text/css">
	.st0{fill-rule:evenodd;clip-rule:evenodd;fill:#333333;}
	.st1{fill:#333333;}
</style>
<path class="st0" d="M31.4,6.1C36,0,42.4,0,42.4,0s0.9,5.7-3.6,11.2C33.9,17,28.4,16,28.4,16S27.3,11.5,31.4,6.1z M16.8,17
	C8.7,17,0,24.3,0,38.1c0,14.1,10.2,31.7,18.4,31.7c2.8,0,7.2-2.9,11.6-2.9c4.3,0,7.5,2.7,11.5,2.7c8.9,0,15.5-18.5,15.5-18.5
	s-9.4-3.6-9.4-14.2c0-9.4,7.6-13.2,7.6-13.2s-3.9-7-13.7-7c-5.7,0-10.1,3.2-12.4,3.2C26.2,20,22.1,17,16.8,17z"/>
<g>
	<path class="st1" d="M101,4.8c12.3,0,21,8.5,21,20.9c0,12.4-8.8,21-21.3,21H86v21.7h-9.9V4.8H101z M86,38.4h12.4
		c8.5,0,13.5-4.6,13.5-12.6S107,13.1,98.4,13.1H86V38.4z"/>
	<path class="st1" d="M123.9,54.7c0-8.4,6.5-13.2,18.3-14l12.9-0.7v-3.7c0-5.5-3.7-8.5-10-8.5c-5.2,0-9,2.7-9.8,6.8h-8.9
		c0.3-8.5,8.3-14.7,19-14.7c11.7,0,19.2,6.2,19.2,15.6v32.8h-9.1v-8h-0.2c-2.6,5.2-8.6,8.5-15.1,8.5
		C130.5,68.9,123.9,63.2,123.9,54.7z M155.1,50.4v-3.7l-11.6,0.8c-6.5,0.4-9.9,2.8-9.9,7.1c0,4.1,3.6,6.7,9.1,6.7
		C149.7,61.2,155.1,56.7,155.1,50.4z"/>
	<path class="st1" d="M175,85.5v-7.8c0.7,0.2,2.2,0.2,3,0.2c4.5,0,7.1-1.9,8.7-7l0.7-2.5l-17.4-48h10.3l12.3,39.1h0.2l12.3-39.1h10
		l-17.9,50.1c-4.1,11.5-8.6,15.2-18.4,15.2C178.1,85.8,175.8,85.6,175,85.5z"/>
</g>
</svg>
