<?xml version="1.0"?><svg fill="#000000" xmlns="http://www.w3.org/2000/svg"  viewBox="0 0 50 50" width="100px" height="100px">    <path d="M 9.984375 15.001953 C 9.149375 15.041953 8.1182969 15.573313 7.5292969 16.320312 C 6.9892969 16.964312 6.5275313 18.010188 6.6445312 18.992188 C 7.5875313 19.074188 8.5301406 18.500438 9.1191406 17.773438 C 9.6991406 17.026437 10.082375 16.024953 9.984375 15.001953 z M 18 17 L 18 32 L 20.375 32 L 20.375 27 L 23.625 27 C 26.608 27 28.75 24.925 28.75 22 C 28.75 19.075 26.647125 17 23.703125 17 L 18 17 z M 20.375 19 L 23.125 19 C 25.172 19 26.375 20.105 26.375 22 C 26.375 23.895 25.182 25 23.125 25 L 20.375 25 L 20.375 19 z M 9.875 19.5 C 8.5 19.5 7.517 20.25 6.875 20.25 C 6.223 20.25 5.25 19.509766 4.125 19.509766 C 2.75 19.509766 1.4033594 20.372859 0.69335938 21.630859 C -0.76564063 24.145859 0.31460937 27.869016 1.7246094 29.916016 C 2.4156094 30.930016 3.25 32 4.375 32 C 5.406 31.961 5.755 31.375 7 31.375 C 8.254 31.375 8.625 32 9.75 32 C 10.875 32 11.556094 30.969078 12.246094 29.955078 C 13.034094 28.805078 13.356 27.684 13.375 27.625 C 13.356 27.606 11.197734 26.77725 11.177734 24.28125 C 11.158734 22.19525 12.879031 21.200578 12.957031 21.142578 C 11.984031 19.700578 10.375 19.5 10 19.5 L 9.875 19.5 z M 34.199219 21 C 31.710219 21 29.870734 22.395453 29.802734 24.314453 L 31.912109 24.314453 C 32.086109 23.402453 32.948859 22.804688 34.130859 22.804688 C 35.563859 22.804688 36.373047 23.460969 36.373047 24.667969 L 36.375 25.5 L 33.443359 25.654297 C 30.722359 25.815297 29.25 26.908594 29.25 28.808594 C 29.25 30.727594 30.770219 32.001953 32.949219 32.001953 C 34.421219 32.001953 35.78725 31.270328 36.40625 30.111328 L 36.455078 30.111328 L 36.455078 31.886719 L 38.623047 31.886719 L 38.623047 24.515625 C 38.624047 22.376625 36.882219 21 34.199219 21 z M 39.5 21 L 43.507812 31.949219 L 43.292969 32.615234 C 42.930969 33.744234 42.344828 34.177734 41.298828 34.177734 C 41.119828 34.177734 40.781 34.159625 40.625 34.140625 L 40.625 35.945312 C 40.783 35.980313 41.332906 36 41.503906 36 C 43.810906 36 44.896703 35.132047 45.845703 32.498047 L 50 21 L 47.595703 21 L 44.808594 29.884766 L 44.759766 29.884766 L 41.972656 21 L 39.5 21 z M 36.375 27 L 36.367188 27.867188 C 36.367188 29.254188 35.166125 30.242188 33.578125 30.242188 C 32.329125 30.242188 31.535156 29.653953 31.535156 28.751953 C 31.535156 27.820953 32.300672 27.279359 33.763672 27.193359 L 36.375 27 z"/></svg>