<svg data-name="Capa 1" height="1701" id="0caaae80-dedd-411a-b85d-6778bb878f80" viewbox="0 0 1701 1701" width="1701" xmlns="http://www.w3.org/2000/svg">
    <title>
        Coupon
    </title>
    <style>
    	path, rect { fill: #bfbfbf; }
    </style>
    <path d="M425.25,1360.8a113.4,113.4,0,1,0,113.4,113.4A113.51,113.51,0,0,0,425.25,1360.8Zm0,170.1a56.7,56.7,0,1,1,56.7-56.7A56.76,56.76,0,0,1,425.25,1530.9Z">
    </path>
    <path d="M1275.75,1360.8a113.4,113.4,0,1,0,113.4,113.4A113.51,113.51,0,0,0,1275.75,1360.8Zm0,170.1a56.7,56.7,0,1,1,56.7-56.7A56.76,56.76,0,0,1,1275.75,1530.9Z">
    </path>
    <rect height="85.05" width="56.7" x="822.15" y="935.55">
    </rect>
    <path d="M1672.65,0H28.35A28.36,28.36,0,0,0,0,28.35v622.4a28.37,28.37,0,0,0,24.66,28.12A176,176,0,0,0,47.2,680.4c49.13,0,75.5-18.6,96.65-33.54,19.05-13.44,32.77-23.16,63.93-23.16s44.88,9.72,63.87,23.16c21.18,14.94,47.49,33.54,96.62,33.54s75.46-18.6,96.64-33.54c3-2.1,5.79-4.05,8.59-6l221.81,345-67.1,104.38a28.32,28.32,0,0,0-3.66,22.2L649,1210.35l-8.71,8.7H560.93a28.38,28.38,0,0,0-23.84,13l-21.88,34.08a226.64,226.64,0,0,0-90-18.74c-125,0-226.8,101.75-226.8,226.8S300.2,1701,425.25,1701a225.2,225.2,0,0,0,152.24-58.71,28.46,28.46,0,0,0,13.35-11l5.42-8.42A226.68,226.68,0,0,0,632,1567.24L850.5,1227.38,1069,1567.22a227.06,227.06,0,0,0,35.75,55.62l5.42,8.45a26.31,26.31,0,0,0,11.79,9.58A225.34,225.34,0,0,0,1275.75,1701c125,0,226.8-101.75,226.8-226.8s-101.75-226.8-226.8-226.8a226.39,226.39,0,0,0-89.93,18.74l-21.88-34.08a28.4,28.4,0,0,0-23.87-13h-79.38l-8.71-8.7,24.47-97.84a28.41,28.41,0,0,0-3.66-22.23l-67.1-104.35,221.5-344.54c2.66,1.82,5.27,3.49,8.08,5.5,21.2,14.91,47.57,33.51,96.73,33.51s75.52-18.6,96.7-33.54c19-13.44,32.83-23.16,64-23.16s45,9.72,64.1,23.16c21.18,14.94,47.55,33.54,96.76,33.54a169.68,169.68,0,0,0,22.85-1.59A28.36,28.36,0,0,0,1701,650.72V28.35A28.36,28.36,0,0,0,1672.65,0ZM529.86,623.73c.28,0,.51,0,.77,0a109.74,109.74,0,0,1,19,1.73c.26,0,.48.14.76.17a77,77,0,0,1,15.14,4.62,3.74,3.74,0,0,0,.51.22,98.84,98.84,0,0,1,13.19,7.06,4.45,4.45,0,0,0,.48.32c4.28,2.72,8.53,5.69,13.1,8.93,21.15,15,47.48,33.59,96.64,33.59a168.93,168.93,0,0,0,22.34-1.56c1.7-.23,3.4-.48,5.05-.76a143.46,143.46,0,0,0,20.27-4.74.34.34,0,0,1,.17,0L816.79,797,729,933.51ZM787.22,646.1c18.49-13,32.32-22.4,62.88-22.4,30.85,0,44.68,9.53,63.45,22.74l-63,98.09ZM583.16,1538.38a34,34,0,0,0-2.13,3.95,169.39,169.39,0,0,1-28.69,44.56,29.3,29.3,0,0,0-2.63,3.52l-.8,1.22a24.19,24.19,0,0,0-3.65,3.09,169,169,0,0,1-120,49.58c-93.81,0-170.1-76.29-170.1-170.1s76.29-170.1,170.1-170.1a170,170,0,0,1,85.65,23.33,28.33,28.33,0,0,0,38.15-9.15l27.33-42.53h75.67a28.27,28.27,0,0,0,20-8.31l28.35-28.35a28.34,28.34,0,0,0,7.46-26.93l-25.37-101.52L729,1038.35l87.8,136.59ZM762.7,986l87.8-136.59,87.8,136.56-87.8,136.59Zm255.77,124.71L993.1,1212.19a28.41,28.41,0,0,0,7.46,26.93l28.35,28.35a28.37,28.37,0,0,0,20,8.28h75.64l27.33,42.53a28.37,28.37,0,0,0,38.16,9.15,170.11,170.11,0,0,1,85.67-23.33c93.81,0,170.1,76.29,170.1,170.1s-76.29,170.1-170.1,170.1a169,169,0,0,1-120-49.58,23.77,23.77,0,0,0-3.54-2.92l-.91-1.39a31.56,31.56,0,0,0-2.63-3.49,170.62,170.62,0,0,1-28.69-44.59,26.84,26.84,0,0,0-2.13-3.95L884.21,1175,972,1038.4ZM1213,553.34a178,178,0,0,1-14.89,28.54l-4.17,6.5v0L972,933.51,884.21,797l285.14-443.54A181,181,0,0,1,1213,553.34Zm431.34,70c-24.89-1.76-37.73-10.8-54.83-22.85-21.18-14.94-47.54-33.54-96.76-33.54s-75.55,18.6-96.73,33.54c-19,13.44-32.8,23.16-64,23.16s-45-9.72-64-23.16c-3.48-2.44-7.08-5-10.91-7.57.08-.14.14-.31.23-.48,1.24-2.44,2.24-5,3.4-7.46,2.07-4.42,4.17-8.82,5.92-13.3,1.11-2.83,2-5.72,3-8.59,1.47-4.22,3-8.42,4.22-12.7.88-3,1.51-6.06,2.24-9.13,1-4.16,2-8.33,2.84-12.53.59-3.14,1-6.29,1.42-9.46.59-4.14,1.19-8.28,1.56-12.42.28-3.23.42-6.44.56-9.67.2-4.11.37-8.19.37-12.3,0-3.26-.14-6.5-.28-9.73-.17-4.05-.4-8.11-.8-12.13-.31-3.26-.71-6.49-1.16-9.73-.54-4-1.16-8-1.93-11.93-.59-3.23-1.27-6.44-2-9.61-.91-3.91-1.9-7.8-3-11.65-.91-3.18-1.85-6.32-2.87-9.44-1.25-3.83-2.63-7.6-4.08-11.34-1.19-3.07-2.38-6.13-3.69-9.13-1.61-3.72-3.4-7.37-5.18-11-1.45-2.92-2.9-5.87-4.45-8.73-2-3.6-4.14-7.12-6.33-10.61-1.7-2.75-3.37-5.55-5.19-8.25-2.35-3.48-4.93-6.83-7.48-10.17-1.93-2.56-3.8-5.14-5.84-7.6-2.81-3.4-5.87-6.64-8.87-9.9-2.07-2.24-4-4.53-6.18-6.69-3.55-3.51-7.32-6.8-11.12-10.12-1.92-1.7-3.71-3.48-5.7-5.1q-8.83-7.27-18.54-13.78a28.34,28.34,0,0,0-39.57,8.25L944.22,598.72C923.47,584.12,897.28,567,850.1,567c-49.16,0-75.49,18.6-96.67,33.54a220,220,0,0,1-18.94,12.39.15.15,0,0,1-.11,0,80.12,80.12,0,0,1-17.44,7.31c-.19.06-.39.08-.59.14a86.23,86.23,0,0,1-10.44,2.1l-2.43.34a116,116,0,0,1-14,.85c-31.15,0-44.9-9.72-64-23.16C604.34,585.6,578,567,528.81,567a167.06,167.06,0,0,0-27.67,2.35c-.9.15-1.84.26-2.75.4A136.63,136.63,0,0,0,473.05,577c-.17,0-.34.08-.51.14l-.14.08c-16.5,6.64-29.15,15.43-40.26,23.28-19,13.47-32.75,23.19-63.87,23.19s-44.88-9.72-63.88-23.16C283.25,585.6,256.91,567,207.78,567s-75.5,18.6-96.65,33.54c-17,12-29.77,21-54.43,22.82V56.7H1644.3V623.39Z">
    </path>
    <rect height="56.7" width="56.7" x="822.15" y="453.6">
    </rect>
    <rect height="56.7" width="56.7" x="822.15" y="340.2">
    </rect>
    <rect height="56.7" width="56.7" x="822.15" y="226.8">
    </rect>
    <rect height="56.7" width="56.7" x="822.15" y="113.4">
    </rect>
    <rect height="56.71" transform="translate(-70.07 492.72) rotate(-56.31)" width="408.9" x="220.83" y="283.47">
    </rect>
    <path d="M567,311.85a85,85,0,1,0,85,85A85.15,85.15,0,0,0,567,311.85Zm0,113.4a28.35,28.35,0,1,1,28.35-28.35A28.4,28.4,0,0,1,567,425.25Z">
    </path>
    <path d="M283.5,141.75a85.05,85.05,0,1,0,85.05,85.05A85.15,85.15,0,0,0,283.5,141.75Zm0,113.4a28.35,28.35,0,1,1,28.35-28.35A28.4,28.4,0,0,1,283.5,255.15Z">
    </path>
</svg>