<svg id="Capa_1" data-name="Capa 1" xmlns="http://www.w3.org/2000/svg" viewBox="0 0 1701 1558.21">
  <title>login</title>
  <style>
	path, rect { fill: #bfbfbf; }
  </style>
  <path d="M1409.17,667.91a24.92,24.92,0,0,0-32.46,13.72,90.94,90.94,0,0,1-168.5,0A24.92,24.92,0,0,0,1162,700.32a140.81,140.81,0,0,0,260.91,0A24.92,24.92,0,0,0,1409.17,667.91Z"/>
  <path d="M1149.25,497.19a24.92,24.92,0,0,0-24.92,24.92v13.82a24.92,24.92,0,0,0,49.84,0V522.11A24.92,24.92,0,0,0,1149.25,497.19Z"/>
  <path d="M1435.65,497.19a24.92,24.92,0,0,0-24.91,24.92v13.82a24.92,24.92,0,0,0,49.83,0V522.11A24.92,24.92,0,0,0,1435.65,497.19Z"/>
  <path d="M554.67,667.91a24.91,24.91,0,0,0-32.46,13.72,91,91,0,0,1-168.51,0,24.92,24.92,0,0,0-46.21,18.65,140.8,140.8,0,0,0,260.9,0A24.91,24.91,0,0,0,554.67,667.91Z"/>
  <path d="M294.75,497.19a24.92,24.92,0,0,0-24.92,24.92v13.82a24.92,24.92,0,0,0,49.83,0V522.11A24.92,24.92,0,0,0,294.75,497.19Z"/>
  <path d="M581.15,497.19a24.92,24.92,0,0,0-24.92,24.92v13.82a24.92,24.92,0,0,0,49.84,0V522.11A24.92,24.92,0,0,0,581.15,497.19Z"/>
  <path d="M1676.08,358.51A24.92,24.92,0,0,0,1701,333.59V264.45c0-98.21-79.9-178.1-178.11-178.1h-33.5l-4.06-9.41A127.59,127.59,0,0,0,1368.18,0H1202.89c-175.9,0-319,143.1-319,319V827.78c0,73.75,60,133.75,133.75,133.75h142.53v35.18h-590V949.16A311.27,311.27,0,0,0,746.36,707.55,91.83,91.83,0,0,0,838,615.82V584.21a91.33,91.33,0,0,0-21.42-58.82l57.35-227a24.92,24.92,0,0,0-48.32-12.21l-53.08,210.1A91.4,91.4,0,0,0,749,492.51v-84.1a24.93,24.93,0,0,0-32.23-23.82c-136.55,41.89-256.22,39.68-346.08-6.41-67.32-34.53-95.24-82.14-95.45-82.51a24.92,24.92,0,0,0-46.65,12.2c0,61.72-13.17,75.09-78.32,79.49A24.92,24.92,0,0,0,127,412.22v80.29a91.47,91.47,0,0,0-26.08,4.58c-10.76-40.78-17.59-71-19.53-86.71-3.88-31.18-1.19-124.14.17-157.33,0-.34,0-.68,0-1a74.07,74.07,0,0,1,74-74h37.77a24.88,24.88,0,0,0,17.62-7.3l89.13-89.13A74.45,74.45,0,0,1,369.55,62L683,136.5a218.39,218.39,0,0,0,50.49,5.93A219,219,0,0,0,869.34,94.94a2.49,2.49,0,0,1,4,2.55l-18.87,74.68a24.92,24.92,0,1,0,48.32,12.21l18.87-74.69A52.33,52.33,0,0,0,838.3,56,169,169,0,0,1,733.45,92.6a168.52,168.52,0,0,1-39-4.57L381.1,13.47a124.58,124.58,0,0,0-116.26,32.9L183,128.21H155.55A124,124,0,0,0,31.72,251.49c-.38,9.67-4.87,124.31.19,165,2.55,20.63,11.16,58,25.59,111.14a91.22,91.22,0,0,0-19.57,56.55v31.61a91.82,91.82,0,0,0,91.59,91.74C143.28,815.25,211.76,905,305.68,949.14v47.57H253.79a203.56,203.56,0,0,0-44.85,5A70.53,70.53,0,0,0,147.71,966H87a87.12,87.12,0,0,0-87,87v135.56a87.13,87.13,0,0,0,50.7,79.05v265.62a24.92,24.92,0,0,0,24.92,24.92H800.3a24.92,24.92,0,0,0,24.92-24.92V1199.8a202.62,202.62,0,0,0-70.06-153.25h405V1059c0,71.87,107.87,134,120.16,140.9a24.86,24.86,0,0,0,24.26,0c12.3-6.85,120.13-69,120.13-140.9v-12.42h51.89c84.51,0,153.26,68.75,153.26,153.25v308.58H1560v-167a24.92,24.92,0,0,0-49.84,0v167H1074.72V1221.8a24.92,24.92,0,0,0-24.92-24.92H900.33a24.92,24.92,0,0,0,0,49.83h124.56v286.58a24.92,24.92,0,0,0,24.91,24.92h605a24.92,24.92,0,0,0,24.91-24.92V1199.8c0-112-91.1-203.09-203.09-203.09h-51.89V961.53h142.56c73.73,0,133.72-60,133.72-133.75V451.23a24.92,24.92,0,1,0-49.83,0v56.4a91.09,91.09,0,0,0-47.75-15.12V372.37a277.38,277.38,0,0,0-49.84-159.16,24.92,24.92,0,0,0-36.26-5,615.6,615.6,0,0,1-389.54,139.24,616.32,616.32,0,0,1-116.42-11,24.92,24.92,0,0,0-29.6,23.19c-.21,4.05-.31,8.24-.31,12.8V492.51a91.2,91.2,0,0,0-47.73,15.12V319c0-148.41,120.75-269.17,269.18-269.17h165.28a77.77,77.77,0,0,1,71.41,46.91l10.57,24.42a24.92,24.92,0,0,0,22.87,15h49.87a128.41,128.41,0,0,1,128.27,128.27v69.14A24.92,24.92,0,0,0,1676.08,358.51ZM177.17,681.35a24.91,24.91,0,0,0-24.88-23.63H129.62a41.93,41.93,0,0,1-41.86-41.9V584.21a41.93,41.93,0,0,1,41.86-41.91H151.9a24.92,24.92,0,0,0,24.92-24.91v-82.7c51.92-7.41,81.15-27.64,93.85-67.07a322.59,322.59,0,0,0,74,53.21C461,482.08,596.47,468.38,699.11,441.41v76A24.91,24.91,0,0,0,724,542.3h22.23a42,42,0,0,1,41.9,41.91v31.61a42,42,0,0,1-41.9,41.9H723.6a24.92,24.92,0,0,0-24.89,23.62A261.48,261.48,0,0,1,535.8,909.86l-.47.19a262,262,0,0,1-194.7,0c-.47-.2-1-.38-1.44-.56A260.87,260.87,0,0,1,177.17,681.35Zm343.2,286.18V1059a82.43,82.43,0,0,1-164.86,0V967.54a311.48,311.48,0,0,0,164.86,0ZM49.83,1188.62V1053.06A37.24,37.24,0,0,1,87,1015.87h60.68a20.73,20.73,0,0,1,20.71,20.71V1205.1a20.74,20.74,0,0,1-20.71,20.72H87A37.24,37.24,0,0,1,49.83,1188.62Zm725.55,11.18v308.58H705.53v-167a24.92,24.92,0,1,0-49.84,0v167H220.2v-167a24.92,24.92,0,1,0-49.83,0v167H100.53V1275.65h47.18a70.62,70.62,0,0,0,70.54-70.55V1050.71a153.85,153.85,0,0,1,35.53-4.16h51.9V1059c0,72.93,59.33,132.26,132.26,132.26A132.23,132.23,0,0,0,570.2,1059v-12.42h51.92C706.63,1046.55,775.38,1115.3,775.38,1199.8ZM1374.89,1059c0,27.62-44.84,66.65-82.43,90.18-37.61-23.54-82.46-62.56-82.46-90.18V967.54a311.46,311.46,0,0,0,164.89,0ZM1651.17,692.4V827.78h0a84,84,0,0,1-83.89,83.92H1485.2q11.22-8.88,21.71-18.84a309.78,309.78,0,0,0,94-185.31A91.1,91.1,0,0,0,1651.17,692.4Zm-667-150.1h22.23a24.91,24.91,0,0,0,24.92-24.91V390.28a669.73,669.73,0,0,0,96.49,7,665.84,665.84,0,0,0,398.77-133,227.94,227.94,0,0,1,27,108.1v145a24.92,24.92,0,0,0,24.91,24.92h22.28a41.92,41.92,0,0,1,41.86,41.9v31.61a41.92,41.92,0,0,1-41.86,41.9h-22.66a24.92,24.92,0,0,0-24.89,23.63,261.36,261.36,0,0,1-162.49,228.32c-.44.18-.87.36-1.31.56a262.2,262.2,0,0,1-194.29-.16c-.48-.21-1-.39-1.47-.58a260.85,260.85,0,0,1-162-228.14,24.91,24.91,0,0,0-24.88-23.63H984.13a42,42,0,0,1-41.9-41.9V584.21h0A42,42,0,0,1,984.13,542.3ZM984,707.55A310.06,310.06,0,0,0,1099.66,911.7h-82a84,84,0,0,1-83.92-83.92V692.41A91.21,91.21,0,0,0,984,707.55Z"/>
</svg>
