<?xml version="1.0" encoding="utf-8"?>
<!-- Generator: Adobe Illustrator 22.0.0, SVG Export Plug-In . SVG Version: 6.00 Build 0)  -->
<svg version="1.1" xmlns="http://www.w3.org/2000/svg" xmlns:xlink="http://www.w3.org/1999/xlink" x="0px" y="0px"
	 viewBox="0 0 552.4 643.9" style="enable-background:new 0 0 552.4 643.9;" xml:space="preserve">
<style type="text/css">
	.st0{fill:#7C7CED;}
	.st1{fill:#FFFFFF;stroke:#000000;stroke-miterlimit:10;}
	.st2{fill:#554CC9;stroke:#FFFFFF;stroke-width:8;stroke-miterlimit:10;}
	.st3{fill:#4744B7;stroke:#FFFFFF;stroke-width:8;stroke-miterlimit:10;}
	.st4{fill:#E0ED0E;}
</style>
<g id="Layer_2">
	<path class="st0" d="M429.8,235.8c2.2-11.4,18.7-74.7,73.3-64c54.7,10.7,49.1,73.6,49.1,73.6s-15,223.5-103.5,343.5
		c-88.5,120-151.5-37.5-151.5-37.5c-18,54-60,9-60,9c-54,153-116.1,49.1-116.1,49.1s-53-75-113-251C-4.7,321-7.3,248.4,37.7,227.4
		c45-21,78,24,78,24s80.9,113.5,154.4,113.5C270.1,364.9,402.9,372.7,429.8,235.8z"/>
	<path class="st1" d="M270.1,4.5"/>
</g>
<g id="Layer_3">
	<path class="st2" d="M274.9,501.6c0,0-51.3-71.9-34.6-117.8c0,0,6.5-19.9,22.4-19.8c0,0,37.5-4.7,39.6,22.3
		C302.4,386.3,319,408.5,274.9,501.6z"/>
	<path class="st3" d="M276.2,4c81.7,0,152.1,69.5,152.1,217.6c0,115.7-70.4,201.3-152.1,201.3c-81.7,0-162-93.8-162-209.5
		S173.1,4,276.2,4z"/>
	<g id="Layer_4">
		<path class="st4" d="M275.1,101.1c28.4,0,51.3,23,51.3,51.3s-23,51.3-51.3,51.3c-28.4,0-51.3-23-51.3-51.3
			S246.8,101.1,275.1,101.1z"/>
	</g>
	<path class="st2" d="M183.1,575.5c0,0-86-131-75-224c0,0,5.5-41,28-45c0,0,52-19,60,34C196.1,340.5,214.1,438.5,183.1,575.5z"/>
	<path class="st2" d="M373.9,574.5c0,0,90.2-128.1,82.2-221.4c0,0-4.2-41.2-26.5-45.9c0,0-51.4-20.7-61.1,32
		C368.6,339.2,347.4,436.5,373.9,574.5z"/>
</g>
</svg>
