<?xml version="1.0" encoding="utf-8"?>
<!-- Generator: Adobe Illustrator 26.0.2, SVG Export Plug-In . SVG Version: 6.00 Build 0)  -->
<svg version="1.1" id="Layer_1" xmlns="http://www.w3.org/2000/svg" xmlns:xlink="http://www.w3.org/1999/xlink" x="0px" y="0px"
	 viewBox="0 0 33.6 40" style="enable-background:new 0 0 33.6 40;" xml:space="preserve">
<style type="text/css">
	.st0{fill:#683BA0;}
	.st1{fill:#FF6D00;}
	.st2{fill:#FFFFFF;}
</style>
<g>
	<g>
		<path class="st0" d="M0.9,3C2.4,3,4,3,5.5,3c0.7,0,1.1,0.3,1.3,1c0.6,2.2,1.2,4.4,1.7,6.7c0.1,0.2,0.2,0.3,0.4,0.4
			c0.7,0.1,1.5,0.2,2.2,0.3c0.2,0,0.3,0.1,0.4,0.3c0.1,0.3,0,0.8,0,1.1c0.1,2.6,1.4,4.9,3.5,6.4c0.5,0.3,1,0.7,1.5,0.9
			c1.5,0.7,3.1,0.8,4.6,0.6c1.2-0.2,2.4-0.6,3.4-1.3c1.5-1,2.7-2.5,3.2-4.2c0-0.1,0.3-1.2,0.2-1.2c1.2,0.2,1.8,0.3,3,0.5
			c0.4,0.1,0.5,0.2,0.5,0.6c-0.1,4-0.1,8-0.2,12c0,0.4-0.2,0.6-0.7,0.6c-6.1,0-12.2,0-18.2,0c-0.3,0-0.6,0.1-0.8,0.3
			c-1.8,1.5-3.6,3.1-5.3,4.6c-0.1,0.1-0.2,0.1-0.2,0.2c-0.1,0.2-0.2,0.4-0.1,0.5c0,0.1,0.3,0.2,0.4,0.2c0.1,0,0.2,0,0.4,0
			c8.6,0,17.1,0,25.7,0c0.2,0,0.3,0,0.5,0c0,0.8,0,1.5,0,2.3c-1.4,0-2.8,0-4.3,0c0.4,0.8,0.5,1.5,0.2,2.3c-0.2,0.5-0.5,0.9-1,1.1
			c-0.9,0.5-2.1,0.4-2.9-0.3c-0.9-0.7-1-1.8-0.5-3.1c-3.1,0-6.2,0-9.3,0c0.4,0.7,0.5,1.4,0.2,2.1c-0.2,0.5-0.5,0.9-0.9,1.2
			c-0.9,0.6-2,0.6-2.9-0.1c-1-0.7-1.1-1.7-0.6-3.2c-0.1,0-0.3,0-0.4,0c-1.3,0-2.7,0-4,0c-1.2,0-2.2-0.7-2.6-1.8
			c-0.4-1.1-0.1-2.2,0.8-3.1c1.7-1.5,3.4-3,5.1-4.4c0.2-0.2,0.2-0.3,0.2-0.5C8.1,19.2,6.5,12.4,4.9,5.7C4.8,5.3,4.7,5.3,4.4,5.3
			c-1,0-2.1,0-3.1,0c-0.1,0-0.3,0-0.4,0C0.9,4.5,0.9,3.8,0.9,3z"/>
	</g>
	<circle class="st1" cx="20.7" cy="11.3" r="10.8"/>
	<g>
		<path class="st2" d="M18.3,17.5L14.1,13c-0.4-0.4-0.4-1.1,0-1.4c0.4-0.4,1.1-0.4,1.4,0l2.8,3L26.2,7c0.4-0.4,1.1-0.4,1.4,0
			C28,7.4,28,8,27.6,8.4L18.3,17.5z"/>
	</g>
</g>
</svg>
